<svg xmlns="http://www.w3.org/2000/svg" width="920" height="480" viewBox="0 0 920 480" role="img" aria-label="L1 rolling median solve time comparison">
  <!-- Generated by scripts/generate_demo_assets.py; do not edit by hand. -->
  <rect width="920" height="480" rx="18" fill="#f8fafc" stroke="#cbd5e1"/>
  <text x="36" y="38" font-family="Georgia,serif" font-size="23" fill="#0f172a">L1 rolling re-solves: published median time</text>
  <text x="36" y="62" font-family="system-ui,sans-serif" font-size="13" fill="#475569">10 bps proportional costs · external solvers use lifted epigraphs · log scale (ms/step)</text>
  <rect x="465" y="50" width="13" height="13" rx="2" fill="#2563eb"/>
  <text x="484" y="61" font-family="system-ui,sans-serif" font-size="12" fill="#334155">ledge</text>
  <rect x="607" y="50" width="13" height="13" rx="2" fill="#f59e0b"/>
  <text x="626" y="61" font-family="system-ui,sans-serif" font-size="12" fill="#334155">osqp (lifted)</text>
  <rect x="749" y="50" width="13" height="13" rx="2" fill="#10b981"/>
  <text x="768" y="61" font-family="system-ui,sans-serif" font-size="12" fill="#334155">clarabel (lifted)</text>
  <line x1="92" y1="382.0" x2="884" y2="382.0" stroke="#e2e8f0"/>
  <text x="80" y="386.0" text-anchor="end" font-family="ui-monospace,monospace" font-size="11" fill="#64748b">0.1</text>
  <line x1="92" y1="324.0" x2="884" y2="324.0" stroke="#e2e8f0"/>
  <text x="80" y="328.0" text-anchor="end" font-family="ui-monospace,monospace" font-size="11" fill="#64748b">1</text>
  <line x1="92" y1="266.0" x2="884" y2="266.0" stroke="#e2e8f0"/>
  <text x="80" y="270.0" text-anchor="end" font-family="ui-monospace,monospace" font-size="11" fill="#64748b">10</text>
  <line x1="92" y1="208.0" x2="884" y2="208.0" stroke="#e2e8f0"/>
  <text x="80" y="212.0" text-anchor="end" font-family="ui-monospace,monospace" font-size="11" fill="#64748b">100</text>
  <line x1="92" y1="150.0" x2="884" y2="150.0" stroke="#e2e8f0"/>
  <text x="80" y="154.0" text-anchor="end" font-family="ui-monospace,monospace" font-size="11" fill="#64748b">1000</text>
  <line x1="92" y1="92.0" x2="884" y2="92.0" stroke="#e2e8f0"/>
  <text x="80" y="96.0" text-anchor="end" font-family="ui-monospace,monospace" font-size="11" fill="#64748b">10000</text>
  <line x1="92" y1="382" x2="884" y2="382" stroke="#94a3b8" stroke-width="1.5"/>
  <rect x="128.7" y="371.5" width="25" height="10.5" rx="3" fill="#2563eb"/>
  <title>n=100, ledge: 0.152 ms/step</title>
  <rect x="158.7" y="358.1" width="25" height="23.9" rx="3" fill="#f59e0b"/>
  <title>n=100, osqp (lifted): 0.258 ms/step</title>
  <rect x="188.7" y="332.5" width="25" height="49.5" rx="3" fill="#10b981"/>
  <title>n=100, clarabel (lifted): 0.713 ms/step</title>
  <text x="171.2" y="406" text-anchor="middle" font-family="system-ui,sans-serif" font-size="12" fill="#334155">n=100</text>
  <rect x="287.1" y="303.5" width="25" height="78.5" rx="3" fill="#2563eb"/>
  <title>n=500, ledge: 2.253 ms/step</title>
  <rect x="317.1" y="301.2" width="25" height="80.8" rx="3" fill="#f59e0b"/>
  <title>n=500, osqp (lifted): 2.476 ms/step</title>
  <rect x="347.1" y="283.7" width="25" height="98.3" rx="3" fill="#10b981"/>
  <title>n=500, clarabel (lifted): 4.944 ms/step</title>
  <text x="329.6" y="406" text-anchor="middle" font-family="system-ui,sans-serif" font-size="12" fill="#334155">n=500</text>
  <rect x="445.5" y="266.7" width="25" height="115.3" rx="3" fill="#2563eb"/>
  <title>n=1000, ledge: 9.734 ms/step</title>
  <rect x="475.5" y="247.2" width="25" height="134.8" rx="3" fill="#f59e0b"/>
  <title>n=1000, osqp (lifted): 21.061 ms/step</title>
  <rect x="505.5" y="255.2" width="25" height="126.8" rx="3" fill="#10b981"/>
  <title>n=1000, clarabel (lifted): 15.362 ms/step</title>
  <text x="488.0" y="406" text-anchor="middle" font-family="system-ui,sans-serif" font-size="12" fill="#334155">n=1000</text>
  <rect x="603.9" y="217.4" width="25" height="164.6" rx="3" fill="#2563eb"/>
  <title>n=2000, ledge: 68.937 ms/step</title>
  <rect x="633.9" y="193.0" width="25" height="189.0" rx="3" fill="#f59e0b"/>
  <title>n=2000, osqp (lifted): 181.153 ms/step</title>
  <rect x="663.9" y="188.0" width="25" height="194.0" rx="3" fill="#10b981"/>
  <title>n=2000, clarabel (lifted): 221.545 ms/step</title>
  <text x="646.4" y="406" text-anchor="middle" font-family="system-ui,sans-serif" font-size="12" fill="#334155">n=2000</text>
  <rect x="762.3" y="162.1" width="25" height="219.9" rx="3" fill="#2563eb"/>
  <title>n=5000, ledge: 619.697 ms/step</title>
  <rect x="792.3" y="127.3" width="25" height="254.7" rx="3" fill="#f59e0b"/>
  <title>n=5000, osqp (lifted): 2463.8 ms/step</title>
  <rect x="822.3" y="133.8" width="25" height="248.2" rx="3" fill="#10b981"/>
  <title>n=5000, clarabel (lifted): 1903.48 ms/step</title>
  <text x="804.8" y="406" text-anchor="middle" font-family="system-ui,sans-serif" font-size="12" fill="#334155">n=5000</text>
  <text x="36" y="454" font-family="system-ui,sans-serif" font-size="12" fill="#475569">Every bar comes from benchmarks/results/2026-07-l1/summary.md (10 repeats × 10 rolling steps; read the report before quoting).</text>
</svg>
